<svg xmlns="http://www.w3.org/2000/svg" width="1200" height="800" viewBox="0 0 1200 800">
  <rect width="1200" height="800" fill="#f8fafc"/>
  <text x="600" y="40" text-anchor="middle" font-family="Segoe UI, Arial, sans-serif" font-size="24" font-weight="700" fill="#0f172a">Supply Chain Resilience Dashboard  Overview</text>

  <rect x="40" y="70" width="540" height="320" rx="12" fill="#ffffff" stroke="#e2e8f0"/>
  <text x="60" y="100" font-family="Segoe UI, Arial, sans-serif" font-size="14" font-weight="700" fill="#334155">Resilience KPIs</text>
  <rect x="70" y="130" width="90" height="180" fill="#dc2626"/><text x="115" y="330" text-anchor="middle" font-size="11" fill="#475569">Risk Index</text><text x="115" y="250" text-anchor="middle" font-size="13" font-weight="700" fill="#fff">0.42</text>
  <rect x="180" y="150" width="90" height="160" fill="#ea580c"/><text x="225" y="330" text-anchor="middle" font-size="11" fill="#475569">Dependency</text><text x="225" y="250" text-anchor="middle" font-size="13" font-weight="700" fill="#fff">0.75</text>
  <rect x="290" y="170" width="90" height="140" fill="#ca8a04"/><text x="335" y="330" text-anchor="middle" font-size="11" fill="#475569">Propagation</text><text x="335" y="250" text-anchor="middle" font-size="13" font-weight="700" fill="#fff">0.38</text>
  <rect x="400" y="120" width="90" height="190" fill="#2563eb"/><text x="445" y="330" text-anchor="middle" font-size="11" fill="#475569">Recovery Days</text><text x="445" y="250" text-anchor="middle" font-size="13" font-weight="700" fill="#fff">24.5</text>

  <rect x="620" y="70" width="540" height="320" rx="12" fill="#ffffff" stroke="#e2e8f0"/>
  <text x="640" y="100" font-family="Segoe UI, Arial, sans-serif" font-size="14" font-weight="700" fill="#334155">Top Supplier Disruption Risk</text>
  <rect x="760" y="130" width="360" height="28" fill="#7c3aed"/><text x="740" y="149" text-anchor="end" font-size="12" fill="#334155">Dragon Packaging</text>
  <rect x="760" y="170" width="320" height="28" fill="#7c3aed"/><text x="740" y="189" text-anchor="end" font-size="12" fill="#334155">Pacific Silicon</text>
  <rect x="760" y="210" width="280" height="28" fill="#7c3aed"/><text x="740" y="229" text-anchor="end" font-size="12" fill="#334155">Blue Ridge Rare Earths</text>
  <rect x="760" y="250" width="220" height="28" fill="#7c3aed"/><text x="740" y="269" text-anchor="end" font-size="12" fill="#334155">Sunrise PCB</text>
  <rect x="760" y="290" width="180" height="28" fill="#7c3aed"/><text x="740" y="309" text-anchor="end" font-size="12" fill="#334155">Andes Copper Foil</text>

  <rect x="40" y="420" width="540" height="320" rx="12" fill="#ffffff" stroke="#e2e8f0"/>
  <text x="60" y="450" font-family="Segoe UI, Arial, sans-serif" font-size="14" font-weight="700" fill="#334155">Disruption Scenario Impact (Service Level %)</text>
  <rect x="90" y="500" width="100" height="180" fill="#0891b2"/><text x="140" y="700" text-anchor="middle" font-size="11" fill="#475569">Wafer Outage</text><text x="140" y="590" text-anchor="middle" font-size="13" font-weight="700" fill="#fff">62%</text>
  <rect x="230" y="540" width="100" height="140" fill="#0891b2"/><text x="280" y="700" text-anchor="middle" font-size="11" fill="#475569">Packaging</text><text x="280" y="610" text-anchor="middle" font-size="13" font-weight="700" fill="#fff">48%</text>
  <rect x="370" y="560" width="100" height="120" fill="#0891b2"/><text x="420" y="700" text-anchor="middle" font-size="11" fill="#475569">Factory</text><text x="420" y="620" text-anchor="middle" font-size="13" font-weight="700" fill="#fff">41%</text>

  <rect x="620" y="420" width="540" height="320" rx="12" fill="#ffffff" stroke="#e2e8f0"/>
  <text x="640" y="450" font-family="Segoe UI, Arial, sans-serif" font-size="14" font-weight="700" fill="#334155">Mitigation Priority (Potential Service Gain %)</text>
  <rect x="760" y="500" width="340" height="28" fill="#16a34a"/><text x="740" y="519" text-anchor="end" font-size="12" fill="#334155">silicon_wafers</text>
  <rect x="760" y="545" width="300" height="28" fill="#16a34a"/><text x="740" y="564" text-anchor="end" font-size="12" fill="#334155">chip_packaging</text>
  <rect x="760" y="590" width="260" height="28" fill="#16a34a"/><text x="740" y="609" text-anchor="end" font-size="12" fill="#334155">rare_earth_materials</text>
</svg>
